
<svg width="320" height="320" viewBox="0 0 320 320" fill="none" xmlns="http://www.w3.org/2000/svg"><rect fill="black" width="20" height="80" x="20" y="80" /><rect fill="black" width="20" height="60" x="40" y="40" /><rect fill="black" width="20" height="60" x="60" y="20" /><rect fill="black" width="20" height="40" x="80" y="40" /><rect fill="black" width="20" height="20" x="100" y="60" /><rect fill="black" width="40" height="100" x="120" y="60" /><rect fill="black" width="20" height="40" x="160" y="60" /><rect fill="black" width="20" height="20" x="180" y="60" /><rect fill="black" width="20" height="40" x="200" y="40" /><rect fill="black" width="20" height="60" x="220" y="20" /><rect fill="black" width="20" height="120" x="240" y="40" /><rect fill="black" width="20" height="80" x="260" y="80" /><rect fill="black" width="260" height="20" x="20" y="160" /><rect fill="black" width="220" height="20" x="40" y="180" /><rect fill="black" width="140" height="20" x="80" y="200" /><rect fill="black" width="20" height="40" x="60" y="100" /><rect fill="orange" width="20" height="40" x="180" y="100" /><rect fill="orange" width="100" height="20" x="100" y="220" /><rect fill="yellow" width="20" height="20" x="120" y="220" /><rect fill="black" width="140" height="40" x="100" y="240" /><rect fill="black" width="160" height="20" x="80" y="280" /><rect fill="black" width="40" height="20" x="240" y="260" /><rect fill="black" width="40" height="20" x="260" y="240" /><rect fill="black" width="20" height="20" x="280" y="220" /></svg>